<svg width="24" height="24" viewBox="0 0 24 24" fill="none" xmlns="http://www.w3.org/2000/svg">
<path fill-rule="evenodd" clip-rule="evenodd" d="M12.1726 19.9543C10.5956 19.9543 9.86271 19.7241 8.58882 18.8032C7.78305 19.8392 5.23143 20.6488 5.12015 19.2637C5.12015 18.2238 4.88993 17.3452 4.62901 16.3859C4.31822 15.2041 3.96521 13.888 3.96521 11.981C3.96521 7.42646 7.70247 4 12.1304 4C16.5622 4 20.0347 7.59529 20.0347 12.0232C20.0495 16.3827 16.532 19.9311 12.1726 19.9543ZM12.2378 7.93679C10.0814 7.82551 8.40081 9.31811 8.02862 11.6587C7.72165 13.5964 8.26651 15.9562 8.73079 16.0789C8.95334 16.1327 9.51354 15.6799 9.86271 15.3307C10.4401 15.7296 11.1124 15.9691 11.8119 16.0252C14.0463 16.1327 15.9555 14.4317 16.1055 12.1997C16.1929 9.96306 14.4725 8.06862 12.2378 7.94062L12.2378 7.93679Z" fill="white"/>
</svg>
